<svg width="34" height="31" viewBox="0 0 34 31" fill="none" xmlns="http://www.w3.org/2000/svg">
<path d="M32.9939 26.8349L26.4874 20.8751C26.1937 20.6061 25.7956 20.4567 25.378 20.4567H24.3142C26.1154 18.3465 27.1857 15.6924 27.1857 12.8052C27.1857 5.93674 21.1099 0.37146 13.6114 0.37146C6.11291 0.37146 0.0371094 5.93674 0.0371094 12.8052C0.0371094 19.6736 6.11291 25.2389 13.6114 25.2389C16.7635 25.2389 19.6611 24.2585 21.9648 22.6087V23.583C21.9648 23.9656 22.128 24.3302 22.4216 24.5992L28.9282 30.5591C29.5416 31.121 30.5336 31.121 31.1405 30.5591L32.9874 28.8674C33.6009 28.3054 33.6009 27.3968 32.9939 26.8349ZM13.6114 20.4567C8.99745 20.4567 5.25799 17.0374 5.25799 12.8052C5.25799 8.5789 8.99093 5.15365 13.6114 5.15365C18.2254 5.15365 21.9648 8.57292 21.9648 12.8052C21.9648 17.0314 18.2319 20.4567 13.6114 20.4567Z" fill="#707072"/>
</svg>
