<svg width="400" height="400" viewBox="0 0 400 400" fill="none" xmlns="http://www.w3.org/2000/svg">
<rect width="400" height="400" rx="59" fill="black"/>
<path d="M270.023 114.933C253.907 98.8115 237.676 82.8026 221.722 66.5215C213.337 57.9643 199.917 55.0786 189.378 66.6339C175.48 81.8716 160.639 96.2478 146.039 110.807C127.206 129.587 109.054 149.071 89.3726 166.993C81.031 174.589 81.4602 194.03 97.3994 198.142C106.102 200.387 112.951 197.158 118.755 191.594C129.44 181.352 139.601 170.566 150.056 160.081C166.16 143.932 182.299 127.817 198.488 111.753C203.288 106.99 206.253 106.801 211.509 110.999C214.087 113.058 216.199 115.696 218.565 118.029C238.593 137.77 258.574 157.559 278.699 177.202C285.109 183.458 290.369 190.899 298.16 195.755C307.242 201.416 316.956 199.94 323.535 191.641C329.938 183.564 329.264 173.981 321.764 166.503C304.688 149.476 287.61 132.45 270.023 114.933ZM178.539 220.485C174.956 220.716 171.861 222.515 168.597 223.707C147.124 231.549 130.785 245.518 119.517 265.387C109.719 282.662 106.462 301.49 106.364 321.083C106.313 331.162 111.025 337.788 120.039 339.839C129.632 342.022 136.96 338.312 141.406 329.407C144.344 323.52 144.169 317.156 144.88 310.917C147.223 290.336 154.946 272.929 174.122 262.681C188.737 254.871 204.181 251.488 220.841 254.761C227.797 256.128 234.222 258.575 240.578 261.52C251.033 266.365 262.376 261.383 265.937 250.523C269.111 240.843 264.899 231.856 254.537 226.865C230.318 215.199 205.24 212.856 178.539 220.485Z" fill="white"/>
</svg>
