<svg width="269" height="352" viewBox="0 0 269 352" fill="none" xmlns="http://www.w3.org/2000/svg">
<path d="M117.589 338.141L117.594 338.147C125.764 349.95 143.235 349.951 151.406 338.147L151.411 338.141C168.092 313.958 182.4 293.574 194.646 276.128C216.861 244.48 232.285 222.505 242.764 205.082C250.954 191.463 256.312 180.332 259.59 169.265C262.878 158.159 264 147.362 264 134.5C264 62.9789 206.021 5 134.5 5C62.9789 5 5 62.9789 5 134.5C5 147.362 6.12162 158.159 9.4105 169.265C12.688 180.332 18.0462 191.463 26.2365 205.082C36.7148 222.505 52.1395 244.48 74.3543 276.128C86.5998 293.574 100.908 313.958 117.589 338.141Z" fill="#2667FF" stroke="#1400A9" stroke-width="10"/>
</svg>
